<svg width="256" height="256" viewBox="0 0 256 256" fill="none" xmlns="http://www.w3.org/2000/svg">
  <defs>
    <linearGradient id="frameGradient" x1="36" y1="48" x2="220" y2="208" gradientUnits="userSpaceOnUse">
      <stop stop-color="#FDBA74"/>
      <stop offset="0.55" stop-color="#F97316"/>
      <stop offset="1" stop-color="#B45309"/>
    </linearGradient>
    <linearGradient id="waveGradient" x1="72" y1="128" x2="184" y2="128" gradientUnits="userSpaceOnUse">
      <stop stop-color="#FED7AA"/>
      <stop offset="0.5" stop-color="#FB923C"/>
      <stop offset="1" stop-color="#FBBF24"/>
    </linearGradient>
    <filter id="glow" x="0" y="0" width="256" height="256" filterUnits="userSpaceOnUse" color-interpolation-filters="sRGB">
      <feGaussianBlur stdDeviation="8" result="blur"/>
      <feBlend in="SourceGraphic" in2="blur" mode="screen"/>
    </filter>
  </defs>

  <rect x="34" y="46" width="188" height="164" rx="30" fill="#0F172A" stroke="url(#frameGradient)" stroke-width="9" filter="url(#glow)"/>
  <rect x="60" y="74" width="120" height="92" rx="16" fill="#1E293B" stroke="#FB923C" stroke-opacity="0.6"/>

  <path d="M88 120C96 108 112 108 120 120C128 132 144 132 152 120" stroke="url(#waveGradient)" stroke-width="10" stroke-linecap="round"/>
  <path d="M84 142C94 128 114 128 124 142C134 156 154 156 164 142" stroke="url(#waveGradient)" stroke-width="8" stroke-linecap="round" stroke-opacity="0.9"/>

  <circle cx="198" cy="94" r="10" fill="#FDBA74"/>
  <circle cx="198" cy="127" r="10" fill="#FB923C"/>
  <circle cx="198" cy="160" r="10" fill="#F97316"/>

  <rect x="78" y="178" width="100" height="8" rx="4" fill="#F59E0B" fill-opacity="0.8"/>

  <path d="M95 32C95 24.8203 100.82 19 108 19H148C155.18 19 161 24.8203 161 32V46H95V32Z" fill="#1E293B" stroke="#FB923C" stroke-opacity="0.7" stroke-width="5"/>
</svg>
